<?xml version="1.0" encoding="utf-8"?>
<!-- Generator: Adobe Illustrator 25.0.0, SVG Export Plug-In . SVG Version: 6.00 Build 0)  -->
<svg version="1.1" id="Layer_1" xmlns="http://www.w3.org/2000/svg" xmlns:xlink="http://www.w3.org/1999/xlink" x="0px" y="0px"
	 viewBox="0 0 360.5 91.89" style="enable-background:new 0 0 360.5 91.89;" xml:space="preserve">
<style type="text/css">
	.st0{fill:#304050;}
	.st1{fill:#FFFFFF;}
</style>
<path class="st0" d="M39.68,7.31C20.9,7.31,5.67,22.54,5.67,41.32c0,18.79,15.23,34.02,34.02,34.02c18.79,0,34.02-15.23,34.02-34.02
	C73.7,22.54,58.47,7.31,39.68,7.31z M39.05,17.15l4.92,15.15H18.19L39.05,17.15z M16.25,34.58h15.93L24.22,59.1L16.25,34.58z
	 M25.79,61.64l4.92-15.15l20.86,15.15H25.79z M54.47,60.94l-12.89-9.37l20.86-15.15L54.47,60.94z M49.77,42.81l-7.97-24.52
	l20.86,15.15L49.77,42.81z"/>
<g>
	<path class="st0" d="M109.25,24.97c0,5.54-4.23,9.81-9.86,9.81h-7.02v10.9h-4.06V15.16h11.08
		C105.02,15.16,109.25,19.39,109.25,24.97z M105.23,24.97c0-3.49-2.49-6.02-5.84-6.02h-7.02v12.04h7.02
		C102.75,30.99,105.23,28.41,105.23,24.97z"/>
	<path class="st0" d="M120.81,42.67c3.01,0,5.19-1.4,6.28-3.18l3.23,1.83c-1.92,2.96-5.23,4.93-9.59,4.93
		c-7.02,0-11.69-4.93-11.69-11.47c0-6.45,4.62-11.47,11.43-11.47c6.58,0,10.86,5.41,10.86,11.51c0,0.57-0.04,1.13-0.13,1.7h-18.27
		C113.65,40.45,116.75,42.67,120.81,42.67z M112.91,33.21h14.57c-0.65-4.32-3.75-6.32-7.02-6.32
		C116.36,26.89,113.52,29.42,112.91,33.21z"/>
	<path class="st0" d="M153.25,32.29v13.39h-3.79V32.51c0-3.58-2.05-5.58-5.41-5.58c-3.49,0-6.32,2.05-6.32,7.2v11.56h-3.79v-21.8
		h3.79v3.14c1.61-2.57,4.01-3.71,7.06-3.71C149.9,23.31,153.25,26.71,153.25,32.29z"/>
	<path class="st0" d="M162.85,27.54v11.82c0,3.31,1.92,3.1,5.8,2.92v3.4c-6.54,0.87-9.59-0.87-9.59-6.32V27.54h-4.32v-3.66h4.32
		v-4.97l3.79-1.13v6.11h5.8v3.66H162.85z"/>
	<path class="st0" d="M192.16,23.88v21.8h-3.79v-3.75c-1.74,2.66-4.54,4.32-8.24,4.32c-6.06,0-11.03-5.02-11.03-11.47
		s4.97-11.47,11.03-11.47c3.71,0,6.5,1.66,8.24,4.32v-3.75H192.16z M188.36,34.78c0-4.45-3.36-7.81-7.76-7.81
		c-4.36,0-7.72,3.36-7.72,7.81s3.36,7.81,7.72,7.81C185,42.59,188.36,39.23,188.36,34.78z"/>
	<path class="st0" d="M215.49,32.29v13.39h-3.79V32.51c0-3.58-2.05-5.58-5.41-5.58c-3.49,0-6.32,2.05-6.32,7.2v11.56h-3.79v-21.8
		h3.79v3.14c1.61-2.57,4.01-3.71,7.07-3.71C212.13,23.31,215.49,26.71,215.49,32.29z"/>
	<path class="st0" d="M240.87,23.88v21.8h-3.79v-3.75c-1.74,2.66-4.54,4.32-8.24,4.32c-6.06,0-11.03-5.02-11.03-11.47
		s4.97-11.47,11.03-11.47c3.71,0,6.5,1.66,8.24,4.32v-3.75H240.87z M237.08,34.78c0-4.45-3.36-7.81-7.76-7.81
		c-4.36,0-7.72,3.36-7.72,7.81s3.36,7.81,7.72,7.81C233.72,42.59,237.08,39.23,237.08,34.78z"/>
	<path class="st0" d="M251.65,27.45c0,2.53-2.05,4.58-4.58,4.58c-2.53,0-4.58-2.05-4.58-4.58c0-2.53,2.05-4.58,4.58-4.58
		C249.6,22.88,251.65,24.92,251.65,27.45z M251.23,27.45c0-2.33-1.87-4.2-4.16-4.2c-2.3,0-4.17,1.87-4.17,4.2
		c0,2.33,1.87,4.2,4.17,4.2C249.36,31.65,251.23,29.78,251.23,27.45z M248.13,28.01l0.97,1.78h-1.06l-0.82-1.58h-0.08h-0.61v1.58
		h-0.97v-4.68h1.58c1.13,0,1.78,0.68,1.78,1.52C248.93,27.28,248.65,27.76,248.13,28.01z M246.54,27.33h0.61
		c0.52,0,0.81-0.27,0.81-0.65c0-0.42-0.29-0.66-0.81-0.66h-0.61V27.33z"/>
	<path class="st0" d="M276.02,37.92h-15.31l-2.96,7.76h-2.44l11.86-30.53h2.44l11.82,30.53h-2.44L276.02,37.92z M275.19,35.74
		l-6.8-17.75l-6.8,17.75H275.19z"/>
	<path class="st0" d="M301.36,23.88v21.8h-2.18v-4.14c-1.66,3.23-4.45,4.62-7.81,4.62c-5.19,0-8.46-3.44-8.46-8.72V23.88h2.22v13.56
		c0,4.01,2.31,6.63,6.41,6.63c4.27,0,7.63-2.79,7.63-8.68V23.88H301.36z"/>
	<path class="st0" d="M327.75,15.16v30.53h-2.18v-5.06c-1.79,3.36-5.15,5.54-9.38,5.54c-6.24,0-11.29-4.93-11.29-11.38
		s5.06-11.38,11.29-11.38c4.23,0,7.59,2.18,9.38,5.54V15.16H327.75z M325.57,34.78c0-5.19-4.06-9.29-9.25-9.29s-9.25,4.1-9.25,9.29
		s4.06,9.29,9.25,9.29S325.57,39.97,325.57,34.78z"/>
	<path class="st0" d="M332.07,16.86c0-0.92,0.78-1.7,1.74-1.7c0.96,0,1.74,0.79,1.74,1.7c0,0.96-0.79,1.74-1.74,1.74
		C332.85,18.6,332.07,17.82,332.07,16.86z M332.72,23.88h2.18v21.8h-2.18V23.88z"/>
	<path class="st0" d="M344.54,26.01v14.17c0,3.84,2.05,3.92,6.5,3.53v1.96c-5.71,0.87-8.72-0.52-8.72-5.49V26.01h-4.8v-2.14h4.8
		v-5.45l2.22-0.65v6.11h6.5v2.14H344.54z"/>
</g>
<g>
	<path class="st0" d="M98.01,59.1v10.8h-1.1v-2.44c-0.91,1.62-2.57,2.68-4.65,2.68c-3.07,0-5.6-2.44-5.6-5.64
		c0-3.2,2.53-5.64,5.6-5.64c2.07,0,3.74,1.06,4.65,2.68V59.1H98.01z M96.9,64.5c0-2.57-1.99-4.6-4.56-4.6s-4.58,2.03-4.58,4.6
		s2.01,4.6,4.58,4.6S96.9,67.08,96.9,64.5z"/>
	<path class="st0" d="M109.39,63.19v6.72h-1.1v-6.72c0-1.99-1.14-3.28-3.18-3.28c-2.12,0-3.78,1.38-3.78,4.3v5.7h-1.08V59.1h1.08
		v2.05c0.82-1.6,2.2-2.29,3.87-2.29C107.77,58.87,109.39,60.57,109.39,63.19z"/>
	<path class="st0" d="M115.48,55.88c0-0.69,0.56-1.28,1.28-1.28c0.69,0,1.25,0.58,1.25,1.28s-0.56,1.25-1.25,1.25
		C116.04,57.14,115.48,56.58,115.48,55.88z M115.8,59.1h1.88v10.8h-1.88V59.1z"/>
	<path class="st0" d="M130.3,54.78v15.12h-1.88v-1.86c-0.86,1.32-2.25,2.14-4.08,2.14c-3,0-5.47-2.49-5.47-5.68
		c0-3.2,2.46-5.68,5.47-5.68c1.84,0,3.22,0.82,4.08,2.14v-6.18H130.3z M128.42,64.5c0-2.2-1.66-3.87-3.85-3.87
		c-2.16,0-3.82,1.66-3.82,3.87c0,2.2,1.66,3.87,3.82,3.87C126.75,68.37,128.42,66.71,128.42,64.5z"/>
	<path class="st0" d="M137.29,68.42c1.49,0,2.57-0.69,3.11-1.58l1.6,0.91c-0.95,1.47-2.59,2.44-4.75,2.44
		c-3.48,0-5.79-2.44-5.79-5.68c0-3.2,2.29-5.68,5.66-5.68c3.26,0,5.38,2.68,5.38,5.7c0,0.28-0.02,0.56-0.07,0.84h-9.05
		C133.75,67.31,135.29,68.42,137.29,68.42z M133.38,63.73h7.22c-0.32-2.14-1.86-3.13-3.48-3.13
		C135.09,60.59,133.69,61.85,133.38,63.73z"/>
	<path class="st0" d="M154.38,59.1v10.8h-1.88v-1.86c-0.86,1.32-2.25,2.14-4.08,2.14c-3,0-5.47-2.49-5.47-5.68
		c0-3.2,2.46-5.68,5.47-5.68c1.84,0,3.22,0.82,4.08,2.14V59.1H154.38z M152.5,64.5c0-2.2-1.66-3.87-3.85-3.87
		c-2.16,0-3.82,1.66-3.82,3.87c0,2.2,1.66,3.87,3.82,3.87C150.84,68.37,152.5,66.71,152.5,64.5z"/>
	<path class="st0" d="M166.98,59.1v10.35c0,3.37-2.7,5.06-5.51,5.06c-2.42,0-4.24-0.93-5.12-2.64l1.64-0.93
		c0.5,1.02,1.4,1.82,3.52,1.82c2.25,0,3.61-1.28,3.61-3.31v-1.53c-0.86,1.32-2.25,2.16-4.06,2.16c-3.07,0-5.51-2.48-5.51-5.64
		c0-3.13,2.44-5.62,5.51-5.62c1.81,0,3.2,0.82,4.06,2.14V59.1H166.98z M165.12,64.44c0-2.16-1.66-3.82-3.85-3.82
		c-2.18,0-3.85,1.66-3.85,3.82c0,2.18,1.66,3.85,3.85,3.85C163.45,68.29,165.12,66.62,165.12,64.44z"/>
	<path class="st0" d="M173.97,68.42c1.49,0,2.57-0.69,3.11-1.58l1.6,0.91c-0.95,1.47-2.59,2.44-4.75,2.44
		c-3.48,0-5.79-2.44-5.79-5.68c0-3.2,2.29-5.68,5.66-5.68c3.26,0,5.38,2.68,5.38,5.7c0,0.28-0.02,0.56-0.07,0.84h-9.05
		C170.43,67.31,171.96,68.42,173.97,68.42z M170.06,63.73h7.22c-0.32-2.14-1.86-3.13-3.48-3.13
		C171.77,60.59,170.36,61.85,170.06,63.73z"/>
	<path class="st0" d="M189.83,63.27v6.63h-1.88v-6.53c0-1.77-1.02-2.77-2.68-2.77c-1.73,0-3.13,1.02-3.13,3.57v5.73h-1.88V59.1h1.88
		v1.56c0.8-1.28,1.99-1.84,3.5-1.84C188.16,58.82,189.83,60.51,189.83,63.27z"/>
	<path class="st0" d="M207.61,64.5c0,3.2-2.51,5.64-5.6,5.64c-2.1,0-3.76-1.08-4.65-2.74v6.83h-1.08V59.1h1.08v2.51
		c0.89-1.66,2.55-2.74,4.65-2.74C205.1,58.87,207.61,61.31,207.61,64.5z M206.53,64.5c0-2.57-2.01-4.6-4.58-4.6s-4.58,2.03-4.58,4.6
		s2.01,4.6,4.58,4.6S206.53,67.08,206.53,64.5z"/>
	<path class="st0" d="M213.82,58.95v1.04c-1.86,0-3.61,1.14-3.61,3.91v6.01h-1.08V59.1h1.08v2.12
		C210.95,59.51,212.36,58.95,213.82,58.95z"/>
	<path class="st0" d="M213.54,64.5c0-3.2,2.53-5.64,5.68-5.64c3.13,0,5.66,2.44,5.66,5.64c0,3.2-2.53,5.64-5.66,5.64
		C216.07,70.14,213.54,67.7,213.54,64.5z M223.78,64.5c0-2.57-1.99-4.6-4.56-4.6s-4.58,2.03-4.58,4.6s2.01,4.6,4.58,4.6
		S223.78,67.08,223.78,64.5z"/>
	<path class="st0" d="M237,54.78v15.12h-1.08V67.4c-0.89,1.66-2.55,2.74-4.65,2.74c-3.09,0-5.6-2.44-5.6-5.64
		c0-3.2,2.51-5.64,5.6-5.64c2.1,0,3.76,1.08,4.65,2.74v-6.83H237z M235.92,64.5c0-2.57-2.01-4.6-4.58-4.6s-4.58,2.03-4.58,4.6
		s2.01,4.6,4.58,4.6S235.92,67.08,235.92,64.5z"/>
	<path class="st0" d="M248.11,59.1v10.8h-1.08v-2.05c-0.82,1.6-2.2,2.29-3.87,2.29c-2.57,0-4.19-1.71-4.19-4.32V59.1h1.1v6.72
		c0,1.99,1.15,3.28,3.18,3.28c2.12,0,3.78-1.38,3.78-4.3V59.1H248.11z"/>
	<path class="st0" d="M249.61,64.5c0-3.2,2.42-5.64,5.68-5.64c2.12,0,3.93,1.08,4.71,2.77l-0.89,0.52c-0.63-1.36-2.1-2.25-3.82-2.25
		c-2.61,0-4.58,2.03-4.58,4.6s1.97,4.6,4.58,4.6c1.75,0,3.18-0.91,3.89-2.25l0.91,0.54c-0.86,1.66-2.68,2.74-4.8,2.74
		C252.03,70.14,249.61,67.7,249.61,64.5z"/>
	<path class="st0" d="M263.7,60.16v7.02c0,1.9,1.02,1.94,3.22,1.75v0.97c-2.83,0.43-4.32-0.26-4.32-2.72v-7.02h-2.38V59.1h2.38v-2.7
		l1.1-0.32v3.02h3.22v1.06H263.7z"/>
</g>
</svg>
