<svg xmlns="http://www.w3.org/2000/svg" width="809.585" height="913.483" viewBox="0 0 809.585 913.483"><g transform="translate(-235 -75.397)"><g transform="translate(558.934 75.897)"><path d="M517.217,365.623,355.5,272.256V110.538l161.717,93.367Z" transform="translate(-355.5 -17.171)" fill="#fff" stroke="#dde0e3" stroke-linejoin="round" stroke-width="1"/><path d="M415.5,365.623l161.717-93.367V110.538L415.5,203.906Z" transform="translate(-253.783 -17.171)" fill="#fff" stroke="#dde0e3" stroke-linejoin="round" stroke-width="1"/><path d="M517.217,75.9,355.5,169.265l161.717,93.367,161.717-93.367Z" transform="translate(-355.5 -75.897)" fill="#fff" stroke="#dde0e3" stroke-linejoin="round" stroke-width="1"/></g><g transform="translate(397.217 330.982)"><path d="M457.217,460.264,295.5,366.9V205.179l161.717,93.367Z" transform="translate(-295.5 -111.812)" fill="#fff" stroke="#dde0e3" stroke-linejoin="round" stroke-width="1"/><path d="M355.5,460.264,517.217,366.9V205.179L355.5,298.547Z" transform="translate(-193.783 -111.812)" fill="#fff" stroke="#dde0e3" stroke-linejoin="round" stroke-width="1"/><path d="M457.217,170.538,295.5,263.906l161.717,93.367,161.717-93.367Z" transform="translate(-295.5 -170.538)" fill="#fff" stroke="#dde0e3" stroke-linejoin="round" stroke-width="1"/></g><g transform="translate(559.046 639.929)"><path d="M517.259,574.889,355.542,481.522V319.8l161.717,93.367Z" transform="translate(-355.542 -226.437)" fill="#fff" stroke="#dde0e3" stroke-linejoin="round" stroke-width="1"/><path d="M415.542,574.889l161.717-93.367V319.8L415.542,413.172Z" transform="translate(-253.825 -226.437)" fill="#fff" stroke="#dde0e3" stroke-linejoin="round" stroke-width="1"/><path d="M517.259,285.163,355.542,378.531,517.259,471.9l161.717-93.367Z" transform="translate(-355.542 -285.163)" fill="#fff" stroke="#dde0e3" stroke-linejoin="round" stroke-width="1"/></g><g transform="translate(720.651 330.982)"><path d="M577.217,460.264,415.5,366.9V205.179l161.717,93.367Z" transform="translate(-415.5 -111.812)" fill="#fff" stroke="#dde0e3" stroke-linejoin="round" stroke-width="1"/><path d="M475.5,460.264,637.217,366.9V205.179L475.5,298.547Z" transform="translate(-313.783 -111.812)" fill="#fff" stroke="#dde0e3" stroke-linejoin="round" stroke-width="1"/><path d="M577.217,170.538,415.5,263.906l161.717,93.367,161.717-93.367Z" transform="translate(-415.5 -170.538)" fill="#fff" stroke="#dde0e3" stroke-linejoin="round" stroke-width="1"/></g><g transform="translate(235.5 75.897)"><path d="M397.217,365.623,235.5,272.255V110.538l161.717,93.367Z" transform="translate(-235.5 -17.171)" fill="#fff" stroke="#dde0e3" stroke-linejoin="round" stroke-width="1"/><path d="M295.5,365.623l161.717-93.367V110.538L295.5,203.906Z" transform="translate(-133.783 -17.171)" fill="#fff" stroke="#dde0e3" stroke-linejoin="round" stroke-width="1"/><path d="M397.217,75.9,235.5,169.265l161.717,93.367,161.717-93.367Z" transform="translate(-235.5 -75.897)" fill="#fff" stroke="#dde0e3" stroke-linejoin="round" stroke-width="1"/></g></g></svg>